{"accessors" : [{"bufferView" : 0, "byteOffset" : 0, "componentType" : 5125, "count" : 78312, "type" : "SCALAR", "max" : [78311], "min" : [0]}, {"bufferView" : 1, "byteOffset" : 0, "componentType" : 5126, "count" : 78312, "type" : "VEC3", "max" : [10.092288970947266, 33.628639221191406, 11.5745849609375], "min" : [-10.167875289916992, -0.02954299934208393, -10.566875457763672], "name" : "POSITION"}, {"bufferView" : 1, "byteOffset" : 12, "componentType" : 5126, "count" : 78312, "type" : "VEC2", "max" : [1, -0], "min" : [0, -1], "name" : "TEXCOORD_0"}, {"bufferView" : 1, "byteOffset" : 20, "componentType" : 5126, "count" : 78312, "type" : "VEC3", "max" : [1.0000042915344238, 1.0000042915344238, 1.0000042915344238], "min" : [-1.0000042915344238, -1.0000042915344238, -1.0000042915344238], "name" : "NORMAL"}], "asset" : {"generator" : "Aspose.3D 22.5.1", "version" : "2.0"}, "buffers" : [{"uri" : "data:application/octet-stream;base64,", "byteLength" : 2819240}], "bufferViews" : [{"buffer" : 0, "byteOffset" : 0, "byteLength" : 313248, "target" : 34963}, {"buffer" : 0, "byteOffset" : 313252, "byteLength" : 2505984, "byteStride" : 32, "target" : 34962}], "meshes" : [{"primitives" : [{"attributes" : {"POSITION" : 1, "TEXCOORD_0" : 2, "NORMAL" : 3}, "indices" : 0, "mode" : 4}]}], "nodes" : [{"mesh" : 0, "name" : "Chair:polySurface1"}], "scene" : 0, "scenes" : [{"nodes" : [0]}]}